<mxfile host="65bd71144e">
    <diagram name="LlamaIndex Human-in-the-Loop" id="llamaindex-human-in-loop">
        <mxGraphModel dx="532" dy="487" grid="1" gridSize="10" guides="1" tooltips="1" connect="1" arrows="1" fold="1" page="1" pageScale="1" pageWidth="1169" pageHeight="827" math="0" shadow="0">
            <root>
                <mxCell id="0"/>
                <mxCell id="1" parent="0"/>
                <mxCell id="title" value="LlamaIndex Human-in-the-Loop 工作流" style="text;html=1;strokeColor=none;fillColor=none;align=center;verticalAlign=middle;whiteSpace=wrap;rounded=0;fontSize=16;fontStyle=1;" parent="1" vertex="1">
                    <mxGeometry x="400" y="20" width="300" height="30" as="geometry"/>
                </mxCell>
                <mxCell id="user-input" value="用户请求" style="rounded=1;whiteSpace=wrap;html=1;fillColor=#d5e8d4;strokeColor=#82b366;fontSize=12;" parent="1" vertex="1">
                    <mxGeometry x="50" y="80" width="100" height="60" as="geometry"/>
                </mxCell>
                <mxCell id="function-agent" value="FunctionAgent&#10;(工作流)" style="rounded=1;whiteSpace=wrap;html=1;fillColor=#dae8fc;strokeColor=#6c8ebf;fontSize=12;" parent="1" vertex="1">
                    <mxGeometry x="200" y="80" width="120" height="60" as="geometry"/>
                </mxCell>
                <mxCell id="tool-execution" value="工具执行&#10;(dangerous_task)" style="rounded=1;whiteSpace=wrap;html=1;fillColor=#fff2cc;strokeColor=#d6b656;fontSize=12;" parent="1" vertex="1">
                    <mxGeometry x="380" y="80" width="120" height="60" as="geometry"/>
                </mxCell>
                <mxCell id="input-required" value="InputRequiredEvent&#10;(等待人工输入)" style="rounded=1;whiteSpace=wrap;html=1;fillColor=#f8cecc;strokeColor=#b85450;fontSize=11;" parent="1" vertex="1">
                    <mxGeometry x="560" y="80" width="140" height="60" as="geometry"/>
                </mxCell>
                <mxCell id="human-response" value="人工响应&#10;(键盘输入/GUI/音频)" style="rounded=1;whiteSpace=wrap;html=1;fillColor=#e1d5e7;strokeColor=#9673a6;fontSize=11;" parent="1" vertex="1">
                    <mxGeometry x="560" y="180" width="140" height="60" as="geometry"/>
                </mxCell>
                <mxCell id="human-response-event" value="HumanResponseEvent&#10;(响应事件)" style="rounded=1;whiteSpace=wrap;html=1;fillColor=#f8cecc;strokeColor=#b85450;fontSize=11;" parent="1" vertex="1">
                    <mxGeometry x="380" y="180" width="140" height="60" as="geometry"/>
                </mxCell>
                <mxCell id="result-processing" value="结果处理&#10;(根据响应执行)" style="rounded=1;whiteSpace=wrap;html=1;fillColor=#fff2cc;strokeColor=#d6b656;fontSize=12;" parent="1" vertex="1">
                    <mxGeometry x="200" y="180" width="120" height="60" as="geometry"/>
                </mxCell>
                <mxCell id="final-output" value="最终输出" style="rounded=1;whiteSpace=wrap;html=1;fillColor=#d5e8d4;strokeColor=#82b366;fontSize=12;" parent="1" vertex="1">
                    <mxGeometry x="50" y="180" width="100" height="60" as="geometry"/>
                </mxCell>
                <mxCell id="event-stream" value="事件流&#10;(stream_events)" style="rounded=1;whiteSpace=wrap;html=1;fillColor=#f5f5f5;strokeColor=#666666;fontSize=10;dashed=1;" parent="1" vertex="1">
                    <mxGeometry x="800" y="80" width="100" height="60" as="geometry"/>
                </mxCell>
                <mxCell id="context-save" value="上下文保存&#10;(数据库/文件)" style="rounded=1;whiteSpace=wrap;html=1;fillColor=#f5f5f5;strokeColor=#666666;fontSize=10;dashed=1;" parent="1" vertex="1">
                    <mxGeometry x="800" y="180" width="100" height="60" as="geometry"/>
                </mxCell>
                <mxCell id="edge1" parent="1" source="user-input" target="function-agent" edge="1">
                    <mxGeometry relative="1" as="geometry"/>
                </mxCell>
                <mxCell id="edge2" parent="1" source="function-agent" target="tool-execution" edge="1">
                    <mxGeometry relative="1" as="geometry"/>
                </mxCell>
                <mxCell id="edge3" parent="1" source="tool-execution" target="input-required" edge="1">
                    <mxGeometry relative="1" as="geometry"/>
                </mxCell>
                <mxCell id="edge4" parent="1" source="input-required" target="human-response" edge="1">
                    <mxGeometry relative="1" as="geometry"/>
                </mxCell>
                <mxCell id="edge5" parent="1" source="human-response" target="human-response-event" edge="1">
                    <mxGeometry relative="1" as="geometry"/>
                </mxCell>
                <mxCell id="edge6" parent="1" source="human-response-event" target="result-processing" edge="1">
                    <mxGeometry relative="1" as="geometry"/>
                </mxCell>
                <mxCell id="edge7" parent="1" source="result-processing" target="final-output" edge="1">
                    <mxGeometry relative="1" as="geometry"/>
                </mxCell>
                <mxCell id="edge8" parent="1" source="input-required" target="event-stream" edge="1">
                    <mxGeometry relative="1" as="geometry"/>
                </mxCell>
                <mxCell id="edge9" parent="1" source="human-response-event" target="context-save" edge="1">
                    <mxGeometry relative="1" as="geometry"/>
                </mxCell>
                <mxCell id="features" value="关键特性:&#10;• 事件驱动架构&#10;• wait_for_event机制&#10;• waiter_id唯一标识&#10;• 支持多种输入方式&#10;• 上下文持久化" style="text;html=1;strokeColor=none;fillColor=#f5f5f5;align=left;verticalAlign=top;whiteSpace=wrap;rounded=1;fontSize=10;" parent="1" vertex="1">
                    <mxGeometry x="50" y="300" width="200" height="100" as="geometry"/>
                </mxCell>
                <mxCell id="code-example" value="核心代码:&#10;await ctx.wait_for_event(&#10;  HumanResponseEvent,&#10;  waiter_id=question,&#10;  waiter_event=InputRequiredEvent(&#10;    prefix=question,&#10;    user_name='Laurie'&#10;  )&#10;)" style="text;html=1;strokeColor=none;fillColor=#e1d5e7;align=left;verticalAlign=top;whiteSpace=wrap;rounded=1;fontSize=9;fontFamily=monospace;" parent="1" vertex="1">
                    <mxGeometry x="300" y="300" width="250" height="100" as="geometry"/>
                </mxCell>
            </root>
        </mxGraphModel>
    </diagram>
</mxfile>